{
  "asset": {
    "version": "2.0",
    "generator": "litadventure generate_study.py"
  },
  "extensionsUsed": [
    "BEVY_skein"
  ],
  "scene": 0,
  "scenes": [
    {
      "name": "Study",
      "nodes": [
        0,
        1,
        2,
        3,
        4,
        5,
        6,
        7,
        8,
        9
      ]
    }
  ],
  "nodes": [
    {
      "name": "Floor",
      "mesh": 0
    },
    {
      "name": "BackWall",
      "mesh": 1,
      "translation": [
        0,
        2.5,
        -5
      ]
    },
    {
      "name": "Desk",
      "mesh": 2,
      "translation": [
        0,
        0.8,
        -2
      ],
      "extensions": {
        "BEVY_skein": {
          "components": [
            {
              "litadventure::components::Clickable": {
                "label": "Desk",
                "description": "A sturdy wooden desk. Its surface is worn smooth."
              }
            },
            {
              "litadventure::components::NavigatesTo": {
                "spot_name": "desk_closeup"
              }
            }
          ]
        }
      }
    },
    {
      "name": "Drawer",
      "mesh": 3,
      "translation": [
        0,
        0.55,
        -1.3
      ],
      "extensions": {
        "BEVY_skein": {
          "components": [
            {
              "litadventure::components::Clickable": {
                "label": "Drawer",
                "description": "A small desk drawer with a brass handle."
              }
            },
            {
              "litadventure::components::ObjectState": "Closed"
            },
            {
              "litadventure::components::TweenConfig": {
                "open_offset": [
                  0.0,
                  0.0,
                  0.4
                ],
                "duration_ms": 400
              }
            }
          ]
        }
      }
    },
    {
      "name": "Flashlight",
      "mesh": 4,
      "translation": [
        0,
        0.7,
        -1.4
      ],
      "extensions": {
        "BEVY_skein": {
          "components": [
            {
              "litadventure::components::Clickable": {
                "label": "Flashlight",
                "description": "A small flashlight. It still works."
              }
            },
            {
              "litadventure::components::InventoryItem": {
                "name": "Flashlight",
                "description": "A small flashlight. It still works.",
                "item_id": "flashlight"
              }
            },
            {
              "litadventure::components::ContainedInName": {
                "container_name": "Drawer"
              }
            }
          ]
        }
      }
    },
    {
      "name": "Bookshelf",
      "mesh": 5,
      "translation": [
        -3,
        1.5,
        -4.5
      ],
      "extensions": {
        "BEVY_skein": {
          "components": [
            {
              "litadventure::components::Clickable": {
                "label": "Bookshelf",
                "description": "Rows of old books. Most are too faded to read."
              }
            }
          ]
        }
      }
    },
    {
      "name": "CameraSpot_RoomOverview",
      "translation": [
        0,
        3,
        6
      ],
      "extensions": {
        "BEVY_skein": {
          "components": [
            {
              "litadventure::components::CameraSpot": {
                "name": "room_overview",
                "look_at": [
                  0.0,
                  1.0,
                  0.0
                ]
              }
            }
          ]
        }
      }
    },
    {
      "name": "CameraSpot_DeskCloseup",
      "translation": [
        0,
        1.8,
        0.5
      ],
      "extensions": {
        "BEVY_skein": {
          "components": [
            {
              "litadventure::components::CameraSpot": {
                "name": "desk_closeup",
                "look_at": [
                  0.0,
                  0.8,
                  -2.0
                ]
              }
            },
            {
              "litadventure::components::ParentSpot": {
                "spot_name": "room_overview"
              }
            }
          ]
        }
      }
    },
    {
      "name": "CameraSpot_DrawerDetail",
      "translation": [
        0,
        1.2,
        -0.5
      ],
      "extensions": {
        "BEVY_skein": {
          "components": [
            {
              "litadventure::components::CameraSpot": {
                "name": "drawer_detail",
                "look_at": [
                  0.0,
                  0.55,
                  -1.8
                ]
              }
            },
            {
              "litadventure::components::ParentSpot": {
                "spot_name": "desk_closeup"
              }
            }
          ]
        }
      }
    },
    {
      "name": "Door",
      "mesh": 6,
      "translation": [
        3,
        1,
        -4.9
      ],
      "extensions": {
        "BEVY_skein": {
          "components": [
            {
              "litadventure::components::Clickable": {
                "label": "Door",
                "description": "A wooden door leading to the hallway."
              }
            },
            {
              "litadventure::navigation::Portal": {
                "target_room": "hallway",
                "entry_spot": "hallway_overview"
              }
            }
          ]
        }
      }
    }
  ],
  "meshes": [
    {
      "name": "FloorMesh",
      "primitives": [
        {
          "attributes": {
            "POSITION": 1,
            "NORMAL": 2
          },
          "indices": 0,
          "material": 0
        }
      ]
    },
    {
      "name": "BackWallMesh",
      "primitives": [
        {
          "attributes": {
            "POSITION": 4,
            "NORMAL": 5
          },
          "indices": 3,
          "material": 1
        }
      ]
    },
    {
      "name": "DeskMesh",
      "primitives": [
        {
          "attributes": {
            "POSITION": 7,
            "NORMAL": 8
          },
          "indices": 6,
          "material": 2
        }
      ]
    },
    {
      "name": "DrawerMesh",
      "primitives": [
        {
          "attributes": {
            "POSITION": 10,
            "NORMAL": 11
          },
          "indices": 9,
          "material": 3
        }
      ]
    },
    {
      "name": "FlashlightMesh",
      "primitives": [
        {
          "attributes": {
            "POSITION": 13,
            "NORMAL": 14
          },
          "indices": 12,
          "material": 4
        }
      ]
    },
    {
      "name": "BookshelfMesh",
      "primitives": [
        {
          "attributes": {
            "POSITION": 16,
            "NORMAL": 17
          },
          "indices": 15,
          "material": 5
        }
      ]
    },
    {
      "name": "DoorMesh",
      "primitives": [
        {
          "attributes": {
            "POSITION": 19,
            "NORMAL": 20
          },
          "indices": 18,
          "material": 6
        }
      ]
    }
  ],
  "materials": [
    {
      "name": "FloorMat",
      "pbrMetallicRoughness": {
        "baseColorFactor": [
          0.3,
          0.25,
          0.2,
          1.0
        ],
        "metallicFactor": 0.1,
        "roughnessFactor": 0.8
      }
    },
    {
      "name": "WallMat",
      "pbrMetallicRoughness": {
        "baseColorFactor": [
          0.6,
          0.55,
          0.5,
          1.0
        ],
        "metallicFactor": 0.1,
        "roughnessFactor": 0.8
      }
    },
    {
      "name": "DeskMat",
      "pbrMetallicRoughness": {
        "baseColorFactor": [
          0.45,
          0.3,
          0.15,
          1.0
        ],
        "metallicFactor": 0.1,
        "roughnessFactor": 0.8
      }
    },
    {
      "name": "DrawerMat",
      "pbrMetallicRoughness": {
        "baseColorFactor": [
          0.5,
          0.35,
          0.18,
          1.0
        ],
        "metallicFactor": 0.1,
        "roughnessFactor": 0.8
      }
    },
    {
      "name": "FlashlightMat",
      "pbrMetallicRoughness": {
        "baseColorFactor": [
          0.7,
          0.7,
          0.2,
          1.0
        ],
        "metallicFactor": 0.1,
        "roughnessFactor": 0.8
      }
    },
    {
      "name": "BookshelfMat",
      "pbrMetallicRoughness": {
        "baseColorFactor": [
          0.35,
          0.22,
          0.1,
          1.0
        ],
        "metallicFactor": 0.1,
        "roughnessFactor": 0.8
      }
    },
    {
      "name": "DoorMat",
      "pbrMetallicRoughness": {
        "baseColorFactor": [
          0.4,
          0.28,
          0.12,
          1.0
        ],
        "metallicFactor": 0.1,
        "roughnessFactor": 0.8
      }
    }
  ],
  "accessors": [
    {
      "bufferView": 0,
      "componentType": 5123,
      "count": 6,
      "type": "SCALAR",
      "max": [
        3
      ],
      "min": [
        0
      ]
    },
    {
      "bufferView": 1,
      "componentType": 5126,
      "count": 4,
      "type": "VEC3",
      "max": [
        5.0,
        0,
        5.0
      ],
      "min": [
        -5.0,
        0,
        -5.0
      ]
    },
    {
      "bufferView": 2,
      "componentType": 5126,
      "count": 4,
      "type": "VEC3"
    },
    {
      "bufferView": 3,
      "componentType": 5123,
      "count": 36,
      "type": "SCALAR",
      "max": [
        23
      ],
      "min": [
        0
      ]
    },
    {
      "bufferView": 4,
      "componentType": 5126,
      "count": 24,
      "type": "VEC3",
      "max": [
        5.0,
        2.5,
        0.05
      ],
      "min": [
        -5.0,
        -2.5,
        -0.05
      ]
    },
    {
      "bufferView": 5,
      "componentType": 5126,
      "count": 24,
      "type": "VEC3"
    },
    {
      "bufferView": 6,
      "componentType": 5123,
      "count": 36,
      "type": "SCALAR",
      "max": [
        23
      ],
      "min": [
        0
      ]
    },
    {
      "bufferView": 7,
      "componentType": 5126,
      "count": 24,
      "type": "VEC3",
      "max": [
        1.0,
        0.4,
        0.5
      ],
      "min": [
        -1.0,
        -0.4,
        -0.5
      ]
    },
    {
      "bufferView": 8,
      "componentType": 5126,
      "count": 24,
      "type": "VEC3"
    },
    {
      "bufferView": 9,
      "componentType": 5123,
      "count": 36,
      "type": "SCALAR",
      "max": [
        23
      ],
      "min": [
        0
      ]
    },
    {
      "bufferView": 10,
      "componentType": 5126,
      "count": 24,
      "type": "VEC3",
      "max": [
        0.3,
        0.1,
        0.2
      ],
      "min": [
        -0.3,
        -0.1,
        -0.2
      ]
    },
    {
      "bufferView": 11,
      "componentType": 5126,
      "count": 24,
      "type": "VEC3"
    },
    {
      "bufferView": 12,
      "componentType": 5123,
      "count": 144,
      "type": "SCALAR",
      "max": [
        49
      ],
      "min": [
        0
      ]
    },
    {
      "bufferView": 13,
      "componentType": 5126,
      "count": 50,
      "type": "VEC3",
      "max": [
        0.05,
        0.15,
        0.05
      ],
      "min": [
        -0.05,
        -0.15,
        -0.05
      ]
    },
    {
      "bufferView": 14,
      "componentType": 5126,
      "count": 50,
      "type": "VEC3"
    },
    {
      "bufferView": 15,
      "componentType": 5123,
      "count": 36,
      "type": "SCALAR",
      "max": [
        23
      ],
      "min": [
        0
      ]
    },
    {
      "bufferView": 16,
      "componentType": 5126,
      "count": 24,
      "type": "VEC3",
      "max": [
        0.75,
        1.5,
        0.2
      ],
      "min": [
        -0.75,
        -1.5,
        -0.2
      ]
    },
    {
      "bufferView": 17,
      "componentType": 5126,
      "count": 24,
      "type": "VEC3"
    },
    {
      "bufferView": 18,
      "componentType": 5123,
      "count": 36,
      "type": "SCALAR",
      "max": [
        23
      ],
      "min": [
        0
      ]
    },
    {
      "bufferView": 19,
      "componentType": 5126,
      "count": 24,
      "type": "VEC3",
      "max": [
        0.4,
        1.0,
        0.05
      ],
      "min": [
        -0.4,
        -1.0,
        -0.05
      ]
    },
    {
      "bufferView": 20,
      "componentType": 5126,
      "count": 24,
      "type": "VEC3"
    }
  ],
  "bufferViews": [
    {
      "buffer": 0,
      "byteOffset": 0,
      "byteLength": 12,
      "target": 34963
    },
    {
      "buffer": 0,
      "byteOffset": 12,
      "byteLength": 48,
      "target": 34962
    },
    {
      "buffer": 0,
      "byteOffset": 60,
      "byteLength": 48,
      "target": 34962
    },
    {
      "buffer": 0,
      "byteOffset": 108,
      "byteLength": 72,
      "target": 34963
    },
    {
      "buffer": 0,
      "byteOffset": 180,
      "byteLength": 288,
      "target": 34962
    },
    {
      "buffer": 0,
      "byteOffset": 468,
      "byteLength": 288,
      "target": 34962
    },
    {
      "buffer": 0,
      "byteOffset": 756,
      "byteLength": 72,
      "target": 34963
    },
    {
      "buffer": 0,
      "byteOffset": 828,
      "byteLength": 288,
      "target": 34962
    },
    {
      "buffer": 0,
      "byteOffset": 1116,
      "byteLength": 288,
      "target": 34962
    },
    {
      "buffer": 0,
      "byteOffset": 1404,
      "byteLength": 72,
      "target": 34963
    },
    {
      "buffer": 0,
      "byteOffset": 1476,
      "byteLength": 288,
      "target": 34962
    },
    {
      "buffer": 0,
      "byteOffset": 1764,
      "byteLength": 288,
      "target": 34962
    },
    {
      "buffer": 0,
      "byteOffset": 2052,
      "byteLength": 288,
      "target": 34963
    },
    {
      "buffer": 0,
      "byteOffset": 2340,
      "byteLength": 600,
      "target": 34962
    },
    {
      "buffer": 0,
      "byteOffset": 2940,
      "byteLength": 600,
      "target": 34962
    },
    {
      "buffer": 0,
      "byteOffset": 3540,
      "byteLength": 72,
      "target": 34963
    },
    {
      "buffer": 0,
      "byteOffset": 3612,
      "byteLength": 288,
      "target": 34962
    },
    {
      "buffer": 0,
      "byteOffset": 3900,
      "byteLength": 288,
      "target": 34962
    },
    {
      "buffer": 0,
      "byteOffset": 4188,
      "byteLength": 72,
      "target": 34963
    },
    {
      "buffer": 0,
      "byteOffset": 4260,
      "byteLength": 288,
      "target": 34962
    },
    {
      "buffer": 0,
      "byteOffset": 4548,
      "byteLength": 288,
      "target": 34962
    }
  ],
  "buffers": [
    {
      "uri": "study.bin",
      "byteLength": 4836
    }
  ]
}