{
  "asset": {
    "version": "2.0",
    "generator": "litadventure generate_study.py"
  },
  "extensionsUsed": [
    "BEVY_skein"
  ],
  "scene": 0,
  "scenes": [
    {
      "name": "Study",
      "nodes": [
        0,
        1,
        2,
        3,
        4,
        5,
        6,
        7,
        8,
        9
      ]
    }
  ],
  "nodes": [
    {
      "name": "HallwayFloor",
      "mesh": 0,
      "translation": [
        0,
        0,
        -14
      ]
    },
    {
      "name": "HallwayEndWall",
      "mesh": 1,
      "translation": [
        0,
        2,
        -22
      ]
    },
    {
      "name": "Painting",
      "mesh": 2,
      "translation": [
        -2.5,
        1.8,
        -14
      ],
      "extensions": {
        "BEVY_skein": {
          "components": [
            {
              "litadventure::components::Clickable": {
                "label": "Painting",
                "description": "A faded landscape painting. Something is written on the back: '42'. What could it mean?"
              }
            }
          ]
        }
      }
    },
    {
      "name": "Lens",
      "mesh": 3,
      "translation": [
        -2,
        0.8,
        -13.5
      ],
      "extensions": {
        "BEVY_skein": {
          "components": [
            {
              "litadventure::components::Clickable": {
                "label": "Lens",
                "description": "A small glass lens, slightly dusty."
              }
            },
            {
              "litadventure::components::InventoryItem": {
                "name": "Lens",
                "description": "A small glass lens.",
                "item_id": "lens"
              }
            }
          ]
        }
      }
    },
    {
      "name": "Frame",
      "mesh": 4,
      "translation": [
        1,
        0.05,
        -12
      ],
      "extensions": {
        "BEVY_skein": {
          "components": [
            {
              "litadventure::components::Clickable": {
                "label": "Frame",
                "description": "A small brass frame. Looks like it once held a lens."
              }
            },
            {
              "litadventure::components::InventoryItem": {
                "name": "Frame",
                "description": "A small brass frame.",
                "item_id": "frame"
              }
            }
          ]
        }
      }
    },
    {
      "name": "OilCan",
      "mesh": 5,
      "translation": [
        2,
        0.5,
        -13
      ],
      "extensions": {
        "BEVY_skein": {
          "components": [
            {
              "litadventure::components::Clickable": {
                "label": "Oil Can",
                "description": "A small can of machine oil. Still half full."
              }
            },
            {
              "litadventure::components::InventoryItem": {
                "name": "Oil Can",
                "description": "A can of machine oil.",
                "item_id": "oil"
              }
            }
          ]
        }
      }
    },
    {
      "name": "CellarDoor",
      "mesh": 6,
      "translation": [
        2.5,
        1,
        -18
      ],
      "extensions": {
        "BEVY_skein": {
          "components": [
            {
              "litadventure::components::Clickable": {
                "label": "Cellar Door",
                "description": "A heavy iron door. The lock is rusted shut."
              }
            },
            {
              "litadventure::components::ObjectState": "Locked"
            },
            {
              "litadventure::components::RequiresItem": {
                "item_id": "oiled_key",
                "use_message": "The oiled key turns smoothly in the rusted lock. The cellar door opens.",
                "fail_message": "The lock is rusted shut. You need something to loosen it.",
                "completes_objective": "enter_cellar"
              }
            }
          ]
        }
      }
    },
    {
      "name": "AtticDoor",
      "mesh": 7,
      "translation": [
        -2.5,
        0.9,
        -18
      ],
      "extensions": {
        "BEVY_skein": {
          "components": [
            {
              "litadventure::components::Clickable": {
                "label": "Attic Door",
                "description": "A narrow door. Stairs lead up into darkness."
              }
            },
            {
              "litadventure::navigation::Portal": {
                "target_room": "attic",
                "entry_spot": "attic_overview"
              }
            }
          ]
        }
      }
    },
    {
      "name": "CameraSpot_HallwayOverview",
      "translation": [
        0,
        2.5,
        -8
      ],
      "extensions": {
        "BEVY_skein": {
          "components": [
            {
              "litadventure::components::CameraSpot": {
                "name": "hallway_overview",
                "look_at": [
                  0.0,
                  1.0,
                  -14.0
                ]
              }
            }
          ]
        }
      }
    },
    {
      "name": "DoorToStudy",
      "mesh": 8,
      "translation": [
        -2.5,
        1,
        -8.5
      ],
      "extensions": {
        "BEVY_skein": {
          "components": [
            {
              "litadventure::components::Clickable": {
                "label": "Door",
                "description": "The door back to the study."
              }
            },
            {
              "litadventure::navigation::Portal": {
                "target_room": "study",
                "entry_spot": "room_overview"
              }
            }
          ]
        }
      }
    }
  ],
  "meshes": [
    {
      "name": "HallwayFloorMesh",
      "primitives": [
        {
          "attributes": {
            "POSITION": 1,
            "NORMAL": 2
          },
          "indices": 0,
          "material": 0
        }
      ]
    },
    {
      "name": "HallwayEndWallMesh",
      "primitives": [
        {
          "attributes": {
            "POSITION": 4,
            "NORMAL": 5
          },
          "indices": 3,
          "material": 1
        }
      ]
    },
    {
      "name": "PaintingMesh",
      "primitives": [
        {
          "attributes": {
            "POSITION": 7,
            "NORMAL": 8
          },
          "indices": 6,
          "material": 2
        }
      ]
    },
    {
      "name": "LensMesh",
      "primitives": [
        {
          "attributes": {
            "POSITION": 10,
            "NORMAL": 11
          },
          "indices": 9,
          "material": 3
        }
      ]
    },
    {
      "name": "FrameMesh",
      "primitives": [
        {
          "attributes": {
            "POSITION": 13,
            "NORMAL": 14
          },
          "indices": 12,
          "material": 4
        }
      ]
    },
    {
      "name": "OilCanMesh",
      "primitives": [
        {
          "attributes": {
            "POSITION": 16,
            "NORMAL": 17
          },
          "indices": 15,
          "material": 5
        }
      ]
    },
    {
      "name": "CellarDoorMesh",
      "primitives": [
        {
          "attributes": {
            "POSITION": 19,
            "NORMAL": 20
          },
          "indices": 18,
          "material": 6
        }
      ]
    },
    {
      "name": "AtticDoorMesh",
      "primitives": [
        {
          "attributes": {
            "POSITION": 22,
            "NORMAL": 23
          },
          "indices": 21,
          "material": 7
        }
      ]
    },
    {
      "name": "DoorToStudyMesh",
      "primitives": [
        {
          "attributes": {
            "POSITION": 25,
            "NORMAL": 26
          },
          "indices": 24,
          "material": 8
        }
      ]
    }
  ],
  "materials": [
    {
      "name": "HallwayFloorMat",
      "pbrMetallicRoughness": {
        "baseColorFactor": [
          0.25,
          0.2,
          0.18,
          1.0
        ],
        "metallicFactor": 0.1,
        "roughnessFactor": 0.8
      }
    },
    {
      "name": "HallwayWallMat",
      "pbrMetallicRoughness": {
        "baseColorFactor": [
          0.5,
          0.48,
          0.44,
          1.0
        ],
        "metallicFactor": 0.1,
        "roughnessFactor": 0.8
      }
    },
    {
      "name": "PaintingMat",
      "pbrMetallicRoughness": {
        "baseColorFactor": [
          0.2,
          0.3,
          0.5,
          1.0
        ],
        "metallicFactor": 0.1,
        "roughnessFactor": 0.8
      }
    },
    {
      "name": "LensMat",
      "pbrMetallicRoughness": {
        "baseColorFactor": [
          0.6,
          0.8,
          0.9,
          1.0
        ],
        "metallicFactor": 0.1,
        "roughnessFactor": 0.8
      }
    },
    {
      "name": "FrameMat",
      "pbrMetallicRoughness": {
        "baseColorFactor": [
          0.5,
          0.4,
          0.2,
          1.0
        ],
        "metallicFactor": 0.1,
        "roughnessFactor": 0.8
      }
    },
    {
      "name": "OilMat",
      "pbrMetallicRoughness": {
        "baseColorFactor": [
          0.3,
          0.35,
          0.3,
          1.0
        ],
        "metallicFactor": 0.1,
        "roughnessFactor": 0.8
      }
    },
    {
      "name": "CellarDoorMat",
      "pbrMetallicRoughness": {
        "baseColorFactor": [
          0.3,
          0.2,
          0.1,
          1.0
        ],
        "metallicFactor": 0.1,
        "roughnessFactor": 0.8
      }
    },
    {
      "name": "AtticDoorMat",
      "pbrMetallicRoughness": {
        "baseColorFactor": [
          0.45,
          0.35,
          0.2,
          1.0
        ],
        "metallicFactor": 0.1,
        "roughnessFactor": 0.8
      }
    },
    {
      "name": "DoorMat",
      "pbrMetallicRoughness": {
        "baseColorFactor": [
          0.4,
          0.28,
          0.12,
          1.0
        ],
        "metallicFactor": 0.1,
        "roughnessFactor": 0.8
      }
    }
  ],
  "accessors": [
    {
      "bufferView": 0,
      "componentType": 5123,
      "count": 6,
      "type": "SCALAR",
      "max": [
        3
      ],
      "min": [
        0
      ]
    },
    {
      "bufferView": 1,
      "componentType": 5126,
      "count": 4,
      "type": "VEC3",
      "max": [
        3.0,
        0,
        8.0
      ],
      "min": [
        -3.0,
        0,
        -8.0
      ]
    },
    {
      "bufferView": 2,
      "componentType": 5126,
      "count": 4,
      "type": "VEC3"
    },
    {
      "bufferView": 3,
      "componentType": 5123,
      "count": 36,
      "type": "SCALAR",
      "max": [
        23
      ],
      "min": [
        0
      ]
    },
    {
      "bufferView": 4,
      "componentType": 5126,
      "count": 24,
      "type": "VEC3",
      "max": [
        3.0,
        2.0,
        0.05
      ],
      "min": [
        -3.0,
        -2.0,
        -0.05
      ]
    },
    {
      "bufferView": 5,
      "componentType": 5126,
      "count": 24,
      "type": "VEC3"
    },
    {
      "bufferView": 6,
      "componentType": 5123,
      "count": 36,
      "type": "SCALAR",
      "max": [
        23
      ],
      "min": [
        0
      ]
    },
    {
      "bufferView": 7,
      "componentType": 5126,
      "count": 24,
      "type": "VEC3",
      "max": [
        0.4,
        0.3,
        0.025
      ],
      "min": [
        -0.4,
        -0.3,
        -0.025
      ]
    },
    {
      "bufferView": 8,
      "componentType": 5126,
      "count": 24,
      "type": "VEC3"
    },
    {
      "bufferView": 9,
      "componentType": 5123,
      "count": 144,
      "type": "SCALAR",
      "max": [
        49
      ],
      "min": [
        0
      ]
    },
    {
      "bufferView": 10,
      "componentType": 5126,
      "count": 50,
      "type": "VEC3",
      "max": [
        0.08,
        0.01,
        0.08
      ],
      "min": [
        -0.08,
        -0.01,
        -0.08
      ]
    },
    {
      "bufferView": 11,
      "componentType": 5126,
      "count": 50,
      "type": "VEC3"
    },
    {
      "bufferView": 12,
      "componentType": 5123,
      "count": 36,
      "type": "SCALAR",
      "max": [
        23
      ],
      "min": [
        0
      ]
    },
    {
      "bufferView": 13,
      "componentType": 5126,
      "count": 24,
      "type": "VEC3",
      "max": [
        0.06,
        0.01,
        0.03
      ],
      "min": [
        -0.06,
        -0.01,
        -0.03
      ]
    },
    {
      "bufferView": 14,
      "componentType": 5126,
      "count": 24,
      "type": "VEC3"
    },
    {
      "bufferView": 15,
      "componentType": 5123,
      "count": 144,
      "type": "SCALAR",
      "max": [
        49
      ],
      "min": [
        0
      ]
    },
    {
      "bufferView": 16,
      "componentType": 5126,
      "count": 50,
      "type": "VEC3",
      "max": [
        0.06,
        0.075,
        0.06
      ],
      "min": [
        -0.06,
        -0.075,
        -0.06
      ]
    },
    {
      "bufferView": 17,
      "componentType": 5126,
      "count": 50,
      "type": "VEC3"
    },
    {
      "bufferView": 18,
      "componentType": 5123,
      "count": 36,
      "type": "SCALAR",
      "max": [
        23
      ],
      "min": [
        0
      ]
    },
    {
      "bufferView": 19,
      "componentType": 5126,
      "count": 24,
      "type": "VEC3",
      "max": [
        0.4,
        1.0,
        0.05
      ],
      "min": [
        -0.4,
        -1.0,
        -0.05
      ]
    },
    {
      "bufferView": 20,
      "componentType": 5126,
      "count": 24,
      "type": "VEC3"
    },
    {
      "bufferView": 21,
      "componentType": 5123,
      "count": 36,
      "type": "SCALAR",
      "max": [
        23
      ],
      "min": [
        0
      ]
    },
    {
      "bufferView": 22,
      "componentType": 5126,
      "count": 24,
      "type": "VEC3",
      "max": [
        0.35,
        0.9,
        0.05
      ],
      "min": [
        -0.35,
        -0.9,
        -0.05
      ]
    },
    {
      "bufferView": 23,
      "componentType": 5126,
      "count": 24,
      "type": "VEC3"
    },
    {
      "bufferView": 24,
      "componentType": 5123,
      "count": 36,
      "type": "SCALAR",
      "max": [
        23
      ],
      "min": [
        0
      ]
    },
    {
      "bufferView": 25,
      "componentType": 5126,
      "count": 24,
      "type": "VEC3",
      "max": [
        0.4,
        1.0,
        0.05
      ],
      "min": [
        -0.4,
        -1.0,
        -0.05
      ]
    },
    {
      "bufferView": 26,
      "componentType": 5126,
      "count": 24,
      "type": "VEC3"
    }
  ],
  "bufferViews": [
    {
      "buffer": 0,
      "byteOffset": 0,
      "byteLength": 12,
      "target": 34963
    },
    {
      "buffer": 0,
      "byteOffset": 12,
      "byteLength": 48,
      "target": 34962
    },
    {
      "buffer": 0,
      "byteOffset": 60,
      "byteLength": 48,
      "target": 34962
    },
    {
      "buffer": 0,
      "byteOffset": 108,
      "byteLength": 72,
      "target": 34963
    },
    {
      "buffer": 0,
      "byteOffset": 180,
      "byteLength": 288,
      "target": 34962
    },
    {
      "buffer": 0,
      "byteOffset": 468,
      "byteLength": 288,
      "target": 34962
    },
    {
      "buffer": 0,
      "byteOffset": 756,
      "byteLength": 72,
      "target": 34963
    },
    {
      "buffer": 0,
      "byteOffset": 828,
      "byteLength": 288,
      "target": 34962
    },
    {
      "buffer": 0,
      "byteOffset": 1116,
      "byteLength": 288,
      "target": 34962
    },
    {
      "buffer": 0,
      "byteOffset": 1404,
      "byteLength": 288,
      "target": 34963
    },
    {
      "buffer": 0,
      "byteOffset": 1692,
      "byteLength": 600,
      "target": 34962
    },
    {
      "buffer": 0,
      "byteOffset": 2292,
      "byteLength": 600,
      "target": 34962
    },
    {
      "buffer": 0,
      "byteOffset": 2892,
      "byteLength": 72,
      "target": 34963
    },
    {
      "buffer": 0,
      "byteOffset": 2964,
      "byteLength": 288,
      "target": 34962
    },
    {
      "buffer": 0,
      "byteOffset": 3252,
      "byteLength": 288,
      "target": 34962
    },
    {
      "buffer": 0,
      "byteOffset": 3540,
      "byteLength": 288,
      "target": 34963
    },
    {
      "buffer": 0,
      "byteOffset": 3828,
      "byteLength": 600,
      "target": 34962
    },
    {
      "buffer": 0,
      "byteOffset": 4428,
      "byteLength": 600,
      "target": 34962
    },
    {
      "buffer": 0,
      "byteOffset": 5028,
      "byteLength": 72,
      "target": 34963
    },
    {
      "buffer": 0,
      "byteOffset": 5100,
      "byteLength": 288,
      "target": 34962
    },
    {
      "buffer": 0,
      "byteOffset": 5388,
      "byteLength": 288,
      "target": 34962
    },
    {
      "buffer": 0,
      "byteOffset": 5676,
      "byteLength": 72,
      "target": 34963
    },
    {
      "buffer": 0,
      "byteOffset": 5748,
      "byteLength": 288,
      "target": 34962
    },
    {
      "buffer": 0,
      "byteOffset": 6036,
      "byteLength": 288,
      "target": 34962
    },
    {
      "buffer": 0,
      "byteOffset": 6324,
      "byteLength": 72,
      "target": 34963
    },
    {
      "buffer": 0,
      "byteOffset": 6396,
      "byteLength": 288,
      "target": 34962
    },
    {
      "buffer": 0,
      "byteOffset": 6684,
      "byteLength": 288,
      "target": 34962
    }
  ],
  "buffers": [
    {
      "uri": "hallway.bin",
      "byteLength": 6972
    }
  ]
}