{
	"asset":{
		"generator":"Khronos glTF Blender I/O v5.1.18",
		"version":"2.0"
	},
	"extensionsUsed":[
		"BEVY_skein"
	],
	"scene":0,
	"scenes":[
		{
			"name":"Scene",
			"nodes":[
				0,
				1,
				2,
				3,
				4,
				5,
				6,
				7,
				8,
				9
			]
		}
	],
	"nodes":[
		{
			"mesh":0,
			"name":"Floor"
		},
		{
			"mesh":1,
			"name":"BackWall",
			"translation":[
				0,
				2.5,
				-5
			]
		},
		{
			"extensions":{
				"BEVY_skein":{
					"components":[
						{
							"litadventure::components::Clickable":{
								"description":"A sturdy wooden desk. Its surface is worn smooth.",
								"label":"Desk"
							}
						},
						{
							"litadventure::components::NavigatesTo":{
								"spot_name":"desk_closeup"
							}
						}
					]
				}
			},
			"mesh":2,
			"name":"Desk",
			"translation":[
				0,
				0.800000011920929,
				-2
			]
		},
		{
			"extensions":{
				"BEVY_skein":{
					"components":[
						{
							"litadventure::components::Clickable":{
								"description":"A small desk drawer with a brass handle.",
								"label":"Drawer"
							}
						},
						{
							"litadventure::components::ObjectState":"Closed"
						},
						{
							"litadventure::components::TweenConfig":{
								"duration_ms":400,
								"open_offset":[
									0,
									0,
									0.4000000059604645
								]
							}
						}
					]
				}
			},
			"mesh":3,
			"name":"Drawer",
			"translation":[
				0,
				0.550000011920929,
				-1.2999999523162842
			]
		},
		{
			"extensions":{
				"BEVY_skein":{
					"components":[
						{
							"litadventure::components::Clickable":{
								"description":"A small flashlight. It still works.",
								"label":"Flashlight"
							}
						},
						{
							"litadventure::components::InventoryItem":{
								"description":"A small flashlight. It still works.",
								"item_id":"flashlight",
								"name":"Flashlight"
							}
						},
						{
							"litadventure::components::ContainedInName":{
								"container_name":"Drawer"
							}
						}
					]
				}
			},
			"mesh":4,
			"name":"Flashlight",
			"translation":[
				0,
				0.699999988079071,
				-1.399999976158142
			]
		},
		{
			"extensions":{
				"BEVY_skein":{
					"components":[
						{
							"litadventure::components::Clickable":{
								"description":"Rows of old books. Most are too faded to read.",
								"label":"Bookshelf"
							}
						}
					]
				}
			},
			"mesh":5,
			"name":"Bookshelf",
			"translation":[
				-3,
				1.5,
				-4.5
			]
		},
		{
			"extensions":{
				"BEVY_skein":{
					"components":[
						{
							"litadventure::components::CameraSpot":{
								"look_at":[
									0,
									1,
									0
								],
								"name":"room_overview"
							}
						}
					]
				}
			},
			"name":"CameraSpot_RoomOverview",
			"translation":[
				0,
				3,
				6
			]
		},
		{
			"extensions":{
				"BEVY_skein":{
					"components":[
						{
							"litadventure::components::CameraSpot":{
								"look_at":[
									0,
									0.800000011920929,
									-2
								],
								"name":"desk_closeup"
							}
						},
						{
							"litadventure::components::ParentSpot":{
								"spot_name":"room_overview"
							}
						}
					]
				}
			},
			"name":"CameraSpot_DeskCloseup",
			"translation":[
				0,
				1.7999999523162842,
				0.5
			]
		},
		{
			"extensions":{
				"BEVY_skein":{
					"components":[
						{
							"litadventure::components::CameraSpot":{
								"look_at":[
									0,
									0.550000011920929,
									-1.7999999523162842
								],
								"name":"drawer_detail"
							}
						},
						{
							"litadventure::components::ParentSpot":{
								"spot_name":"desk_closeup"
							}
						}
					]
				}
			},
			"name":"CameraSpot_DrawerDetail",
			"translation":[
				0,
				1.2000000476837158,
				-0.5
			]
		},
		{
			"extensions":{
				"BEVY_skein":{
					"components":[
						{
							"litadventure::components::Clickable":{
								"description":"A wooden door leading to the hallway.",
								"label":"Door"
							}
						},
						{
							"litadventure::navigation::Portal":{
								"entry_spot":"hallway_overview",
								"target_room":"hallway"
							}
						}
					]
				}
			},
			"mesh":6,
			"name":"Door",
			"translation":[
				3,
				1,
				-4.900000095367432
			]
		}
	],
	"materials":[
		{
			"name":"FloorMat",
			"pbrMetallicRoughness":{
				"baseColorFactor":[
					0.30000001192092896,
					0.25,
					0.20000000298023224,
					1
				],
				"metallicFactor":0.10000000149011612,
				"roughnessFactor":0.800000011920929
			}
		},
		{
			"name":"WallMat",
			"pbrMetallicRoughness":{
				"baseColorFactor":[
					0.6000000238418579,
					0.550000011920929,
					0.5,
					1
				],
				"metallicFactor":0.10000000149011612,
				"roughnessFactor":0.800000011920929
			}
		},
		{
			"name":"DeskMat",
			"pbrMetallicRoughness":{
				"baseColorFactor":[
					0.44999998807907104,
					0.30000001192092896,
					0.15000000596046448,
					1
				],
				"metallicFactor":0.10000000149011612,
				"roughnessFactor":0.800000011920929
			}
		},
		{
			"name":"DrawerMat",
			"pbrMetallicRoughness":{
				"baseColorFactor":[
					0.5,
					0.3499999940395355,
					0.18000000715255737,
					1
				],
				"metallicFactor":0.10000000149011612,
				"roughnessFactor":0.800000011920929
			}
		},
		{
			"name":"FlashlightMat",
			"pbrMetallicRoughness":{
				"baseColorFactor":[
					0.699999988079071,
					0.699999988079071,
					0.20000000298023224,
					1
				],
				"metallicFactor":0.10000000149011612,
				"roughnessFactor":0.800000011920929
			}
		},
		{
			"name":"BookshelfMat",
			"pbrMetallicRoughness":{
				"baseColorFactor":[
					0.3499999940395355,
					0.2199999988079071,
					0.10000000149011612,
					1
				],
				"metallicFactor":0.10000000149011612,
				"roughnessFactor":0.800000011920929
			}
		},
		{
			"name":"DoorMat",
			"pbrMetallicRoughness":{
				"baseColorFactor":[
					0.4000000059604645,
					0.2800000011920929,
					0.11999999731779099,
					1
				],
				"metallicFactor":0.10000000149011612,
				"roughnessFactor":0.800000011920929
			}
		}
	],
	"meshes":[
		{
			"name":"FloorMesh",
			"primitives":[
				{
					"attributes":{
						"POSITION":0,
						"NORMAL":1
					},
					"indices":2,
					"material":0
				}
			]
		},
		{
			"name":"BackWallMesh",
			"primitives":[
				{
					"attributes":{
						"POSITION":3,
						"NORMAL":4
					},
					"indices":5,
					"material":1
				}
			]
		},
		{
			"name":"DeskMesh",
			"primitives":[
				{
					"attributes":{
						"POSITION":6,
						"NORMAL":7
					},
					"indices":5,
					"material":2
				}
			]
		},
		{
			"name":"DrawerMesh",
			"primitives":[
				{
					"attributes":{
						"POSITION":8,
						"NORMAL":9
					},
					"indices":5,
					"material":3
				}
			]
		},
		{
			"name":"FlashlightMesh",
			"primitives":[
				{
					"attributes":{
						"POSITION":10,
						"NORMAL":11
					},
					"indices":12,
					"material":4
				}
			]
		},
		{
			"name":"BookshelfMesh",
			"primitives":[
				{
					"attributes":{
						"POSITION":13,
						"NORMAL":14
					},
					"indices":5,
					"material":5
				}
			]
		},
		{
			"name":"DoorMesh",
			"primitives":[
				{
					"attributes":{
						"POSITION":15,
						"NORMAL":16
					},
					"indices":5,
					"material":6
				}
			]
		}
	],
	"accessors":[
		{
			"bufferView":0,
			"componentType":5126,
			"count":4,
			"max":[
				5,
				0,
				5
			],
			"min":[
				-5,
				0,
				-5
			],
			"type":"VEC3"
		},
		{
			"bufferView":1,
			"componentType":5126,
			"count":4,
			"type":"VEC3"
		},
		{
			"bufferView":2,
			"componentType":5123,
			"count":6,
			"type":"SCALAR"
		},
		{
			"bufferView":3,
			"componentType":5126,
			"count":24,
			"max":[
				5,
				2.5,
				0.05000000074505806
			],
			"min":[
				-5,
				-2.5,
				-0.05000000074505806
			],
			"type":"VEC3"
		},
		{
			"bufferView":4,
			"componentType":5126,
			"count":24,
			"type":"VEC3"
		},
		{
			"bufferView":5,
			"componentType":5123,
			"count":36,
			"type":"SCALAR"
		},
		{
			"bufferView":6,
			"componentType":5126,
			"count":24,
			"max":[
				1,
				0.4000000059604645,
				0.5
			],
			"min":[
				-1,
				-0.4000000059604645,
				-0.5
			],
			"type":"VEC3"
		},
		{
			"bufferView":7,
			"componentType":5126,
			"count":24,
			"type":"VEC3"
		},
		{
			"bufferView":8,
			"componentType":5126,
			"count":24,
			"max":[
				0.30000001192092896,
				0.10000000149011612,
				0.20000000298023224
			],
			"min":[
				-0.30000001192092896,
				-0.10000000149011612,
				-0.20000000298023224
			],
			"type":"VEC3"
		},
		{
			"bufferView":9,
			"componentType":5126,
			"count":24,
			"type":"VEC3"
		},
		{
			"bufferView":10,
			"componentType":5126,
			"count":50,
			"max":[
				0.05000000074505806,
				0.15000000596046448,
				0.05000000074505806
			],
			"min":[
				-0.05000000074505806,
				-0.15000000596046448,
				-0.05000000074505806
			],
			"type":"VEC3"
		},
		{
			"bufferView":11,
			"componentType":5126,
			"count":50,
			"type":"VEC3"
		},
		{
			"bufferView":12,
			"componentType":5123,
			"count":144,
			"type":"SCALAR"
		},
		{
			"bufferView":13,
			"componentType":5126,
			"count":24,
			"max":[
				0.75,
				1.5,
				0.20000000298023224
			],
			"min":[
				-0.75,
				-1.5,
				-0.20000000298023224
			],
			"type":"VEC3"
		},
		{
			"bufferView":14,
			"componentType":5126,
			"count":24,
			"type":"VEC3"
		},
		{
			"bufferView":15,
			"componentType":5126,
			"count":24,
			"max":[
				0.4000000059604645,
				1,
				0.05000000074505806
			],
			"min":[
				-0.4000000059604645,
				-1,
				-0.05000000074505806
			],
			"type":"VEC3"
		},
		{
			"bufferView":16,
			"componentType":5126,
			"count":24,
			"type":"VEC3"
		}
	],
	"bufferViews":[
		{
			"buffer":0,
			"byteLength":48,
			"byteOffset":0,
			"target":34962
		},
		{
			"buffer":0,
			"byteLength":48,
			"byteOffset":48,
			"target":34962
		},
		{
			"buffer":0,
			"byteLength":12,
			"byteOffset":96,
			"target":34963
		},
		{
			"buffer":0,
			"byteLength":288,
			"byteOffset":108,
			"target":34962
		},
		{
			"buffer":0,
			"byteLength":288,
			"byteOffset":396,
			"target":34962
		},
		{
			"buffer":0,
			"byteLength":72,
			"byteOffset":684,
			"target":34963
		},
		{
			"buffer":0,
			"byteLength":288,
			"byteOffset":756,
			"target":34962
		},
		{
			"buffer":0,
			"byteLength":288,
			"byteOffset":1044,
			"target":34962
		},
		{
			"buffer":0,
			"byteLength":288,
			"byteOffset":1332,
			"target":34962
		},
		{
			"buffer":0,
			"byteLength":288,
			"byteOffset":1620,
			"target":34962
		},
		{
			"buffer":0,
			"byteLength":600,
			"byteOffset":1908,
			"target":34962
		},
		{
			"buffer":0,
			"byteLength":600,
			"byteOffset":2508,
			"target":34962
		},
		{
			"buffer":0,
			"byteLength":288,
			"byteOffset":3108,
			"target":34963
		},
		{
			"buffer":0,
			"byteLength":288,
			"byteOffset":3396,
			"target":34962
		},
		{
			"buffer":0,
			"byteLength":288,
			"byteOffset":3684,
			"target":34962
		},
		{
			"buffer":0,
			"byteLength":288,
			"byteOffset":3972,
			"target":34962
		},
		{
			"buffer":0,
			"byteLength":288,
			"byteOffset":4260,
			"target":34962
		}
	],
	"buffers":[
		{
			"byteLength":4548,
			"uri":"study2.bin"
		}
	]
}
